<?xml version="1.0" encoding="utf-8"?>
<!-- Generator: Adobe Illustrator 23.1.1, SVG Export Plug-In . SVG Version: 6.00 Build 0)  -->
<svg version="1.1" id="Calque_1" xmlns="http://www.w3.org/2000/svg" xmlns:xlink="http://www.w3.org/1999/xlink" x="0px" y="0px"
	 viewBox="0 0 62.1 33.5" style="enable-background:new 0 0 62.1 33.5;" xml:space="preserve">
<path d="M45,18h-0.9l-1.7,14h0.2v0h3.4v0h0.7L45,18z M42.8,31.5l0.4-2.9h0l0-0.4h0l1.1-8.9l1,8.9h0l0,0.4h0l0.4,2.9H42.8z"/>
<polygon points="11.9,0.8 10.9,0.8 9.1,14.7 9.5,14.7 9.8,11.9 9.8,11.9 10,10.9 10,10.9 11.1,2.1 12.2,10.8 12.2,10.8 12.3,11.3 
	12.3,11.3 12.7,14.7 13.6,14.7 "/>
<g>
	<path d="M17.5,8.4h-0.4v6.1h-0.8V0.8H18c0.4,0,0.7,0.1,1,0.3s0.5,0.4,0.7,0.7s0.4,0.7,0.5,1.1s0.2,0.9,0.2,1.5v0.5
		c0,1-0.2,1.8-0.5,2.4c-0.4,0.6-0.8,1-1.4,1.1l2.2,6.2h-0.9L17.5,8.4z M19.5,4.6c0-0.5-0.1-1-0.2-1.5c-0.1-0.4-0.3-0.8-0.5-1.1
		s-0.5-0.6-0.7-0.7c-0.3-0.2-0.6-0.3-1-0.3h0v7.2h0c0.4,0,0.7-0.1,1-0.3c0.3-0.2,0.5-0.4,0.7-0.7c0.2-0.3,0.4-0.7,0.5-1.1
		c0.1-0.4,0.2-0.9,0.2-1.5V4.6z"/>
	<path d="M28.3,2l-1.8,12.6h-0.8L23.7,2v12.6h-0.4V0.8h1.1l2,12.4l1.7-12.4h1.1v13.8h-0.8V2z"/>
	<path d="M35.7,0.8v0.4h-2.6V7h1.8v0.4h-1.8v6.8h2.6v0.4h-3.4V0.8H35.7z"/>
	<path d="M41.3,14.2v0.4h-3.1V0.8H39v13.4H41.3z"/>
	<path d="M47,14.2v0.4h-3.1V0.8h0.8v13.4H47z"/>
	<path d="M52.9,0.8v0.4h-2.6V7h1.8v0.4h-1.8v6.8h2.6v0.4h-3.4V0.8H52.9z"/>
	<path d="M4.4,31.5v0.4H1.3V18.1h0.8v13.4H4.4z"/>
	<path d="M9,17.9c0.6,0,1.1,0.3,1.5,0.9s0.6,1.3,0.6,2.3V29c0,0.9-0.2,1.7-0.6,2.3c-0.4,0.6-0.9,0.9-1.5,0.9c-0.6,0-1.1-0.3-1.5-0.9
		S6.9,29.9,6.9,29v-7.9c0-0.9,0.2-1.7,0.6-2.3S8.3,17.9,9,17.9L9,17.9z M10.3,20c0-0.6-0.1-1-0.4-1.4c-0.2-0.3-0.5-0.5-0.9-0.5
		c-0.4,0-0.7,0.2-0.9,0.5C7.8,19,7.7,19.5,7.7,20v10c0,0.6,0.1,1,0.4,1.4c0.2,0.3,0.5,0.5,0.9,0.5c0.4,0,0.7-0.2,0.9-0.5
		c0.2-0.3,0.3-0.8,0.3-1.4V20z"/>
	<path d="M16.1,17.9c0.7,0,1.2,0.3,1.6,0.9c0.4,0.6,0.6,1.4,0.6,2.3v0.2h-0.8v-1.3c0-0.6-0.1-1.1-0.4-1.4c-0.2-0.4-0.6-0.5-1-0.5
		c-0.5,0-0.8,0.2-1.1,0.6c-0.3,0.4-0.4,1-0.4,1.6v1.2c0,0.4,0.1,0.8,0.2,1.2c0.1,0.4,0.3,0.7,0.6,0.9l1.7,1.5
		c0.3,0.3,0.6,0.7,0.8,1.2c0.2,0.5,0.3,1.1,0.3,1.6v0.7c0,0.5-0.1,1-0.2,1.4c-0.1,0.4-0.3,0.8-0.5,1.1c-0.2,0.3-0.4,0.5-0.7,0.7
		c-0.3,0.2-0.6,0.2-0.9,0.2c-0.6,0-1.2-0.3-1.6-0.9c-0.4-0.6-0.6-1.4-0.6-2.3v-0.2h0.8v1.6c0,0.5,0.1,0.9,0.3,1.2s0.5,0.5,0.8,0.5
		c0.5,0,0.9-0.2,1.2-0.7c0.3-0.5,0.5-1.1,0.5-1.8v-1.3c0-0.4-0.1-0.8-0.2-1.2c-0.2-0.4-0.4-0.7-0.6-0.9l-1.7-1.5
		c-0.3-0.3-0.6-0.7-0.8-1.2c-0.2-0.5-0.3-1-0.3-1.6v-0.4c0-0.5,0.1-1,0.2-1.4c0.1-0.4,0.3-0.8,0.5-1.1c0.2-0.3,0.4-0.5,0.7-0.7
		C15.4,18,15.7,17.9,16.1,17.9L16.1,17.9z"/>
	<path d="M23.3,17.9c0.7,0,1.2,0.3,1.6,0.9c0.4,0.6,0.6,1.4,0.6,2.3v0.2h-0.8v-1.3c0-0.6-0.1-1.1-0.4-1.4c-0.2-0.4-0.6-0.5-1-0.5
		c-0.5,0-0.8,0.2-1.1,0.6c-0.3,0.4-0.4,1-0.4,1.6v1.2c0,0.4,0.1,0.8,0.2,1.2c0.1,0.4,0.3,0.7,0.6,0.9l1.7,1.5
		c0.3,0.3,0.6,0.7,0.8,1.2c0.2,0.5,0.3,1.1,0.3,1.6v0.7c0,0.5-0.1,1-0.2,1.4c-0.1,0.4-0.3,0.8-0.5,1.1c-0.2,0.3-0.4,0.5-0.7,0.7
		c-0.3,0.2-0.6,0.2-0.9,0.2c-0.6,0-1.2-0.3-1.6-0.9c-0.4-0.6-0.6-1.4-0.6-2.3v-0.2h0.8v1.6c0,0.5,0.1,0.9,0.3,1.2s0.5,0.5,0.8,0.5
		c0.5,0,0.9-0.2,1.2-0.7c0.3-0.5,0.5-1.1,0.5-1.8v-1.3c0-0.4-0.1-0.8-0.2-1.2c-0.2-0.4-0.4-0.7-0.6-0.9l-1.7-1.5
		c-0.3-0.3-0.6-0.7-0.8-1.2c-0.2-0.5-0.3-1-0.3-1.6v-0.4c0-0.5,0.1-1,0.2-1.4c0.1-0.4,0.3-0.8,0.5-1.1c0.2-0.3,0.4-0.5,0.7-0.7
		C22.6,18,22.9,17.9,23.3,17.9L23.3,17.9z"/>
	<path d="M30.4,17.9c0.6,0,1.1,0.3,1.5,0.9s0.6,1.3,0.6,2.3V29c0,0.9-0.2,1.7-0.6,2.3c-0.4,0.6-0.9,0.9-1.5,0.9
		c-0.6,0-1.1-0.3-1.5-0.9s-0.6-1.3-0.6-2.3v-7.9c0-0.9,0.2-1.7,0.6-2.3S29.7,17.9,30.4,17.9L30.4,17.9z M31.7,20
		c0-0.6-0.1-1-0.4-1.4c-0.2-0.3-0.5-0.5-0.9-0.5c-0.4,0-0.7,0.2-0.9,0.5c-0.2,0.3-0.3,0.8-0.3,1.4v10c0,0.6,0.1,1,0.4,1.4
		c0.2,0.3,0.5,0.5,0.9,0.5c0.4,0,0.7-0.2,0.9-0.5c0.2-0.3,0.3-0.8,0.3-1.4V20z"/>
	<path d="M38.8,18.1h0.8v10.7c0,0.9-0.2,1.7-0.6,2.3s-0.9,0.9-1.5,0.9c-0.6,0-1.1-0.3-1.5-0.9s-0.6-1.3-0.6-2.3V18.1h0.8v11.7
		c0,0.6,0.1,1,0.4,1.4c0.2,0.3,0.5,0.5,0.9,0.5c0.4,0,0.7-0.2,0.9-0.5c0.2-0.3,0.3-0.8,0.3-1.4V18.1z"/>
	<path d="M50.6,25.8h-0.4v6.1h-0.8V18.1h1.7c0.4,0,0.7,0.1,1,0.3c0.3,0.2,0.5,0.4,0.7,0.7s0.4,0.7,0.5,1.1c0.1,0.4,0.2,0.9,0.2,1.5
		v0.5c0,1-0.2,1.8-0.5,2.4c-0.4,0.6-0.8,1-1.4,1.1l2.2,6.2h-0.9L50.6,25.8z M52.6,21.9c0-0.5-0.1-1-0.2-1.5
		c-0.1-0.4-0.3-0.8-0.5-1.1s-0.5-0.6-0.7-0.7c-0.3-0.2-0.6-0.3-1-0.3h0v7.2h0c0.4,0,0.7-0.1,1-0.3c0.3-0.2,0.5-0.4,0.7-0.7
		s0.4-0.7,0.5-1.1c0.1-0.4,0.2-0.9,0.2-1.5V21.9z"/>
	<path d="M60.5,31.9h-0.9l-2.9-10.8v10.8h-0.4V18.1h0.6l3.2,12.5V18.1h0.4V31.9z"/>
</g>
</svg>
