<?xml version="1.0" encoding="utf-8"?>
<!-- Generator: Adobe Illustrator 23.1.1, SVG Export Plug-In . SVG Version: 6.00 Build 0)  -->
<svg version="1.1" id="Calque_1" xmlns="http://www.w3.org/2000/svg" xmlns:xlink="http://www.w3.org/1999/xlink" x="0px" y="0px"
	 viewBox="0 0 177.6 25.3" style="enable-background:new 0 0 177.6 25.3;" xml:space="preserve">
<path d="M151.6,1.3h-1.3l-2.5,22.1h0.4h0.2h4.4h1.2L151.6,1.3z M148.4,23.1l0.5-4.3h0l0.2-1.4h0l0-0.1l0-0.3h0l1.6-13.7l1.5,14.1h0
	l0.1,0.7h0l0.5,5H148.4z"/>
<polygon points="5.2,1.5 3.8,1.5 1.3,23.5 1.9,23.5 2.5,18.2 2.6,17.4 2.6,17.4 4.2,3.5 5.6,17.4 5.7,18.1 5.7,18.1 6.3,23.5 
	7.5,23.5 "/>
<g>
	<path d="M14.4,13.7h-0.5v9.8h-1.2v-22h2.3c0.5,0,0.9,0.1,1.3,0.4c0.4,0.3,0.7,0.7,1,1.2c0.3,0.5,0.5,1.1,0.7,1.8
		c0.2,0.7,0.2,1.5,0.2,2.3V8c0,1.5-0.2,2.8-0.7,3.8c-0.5,1-1.1,1.6-2,1.8l3,9.9h-1.3L14.4,13.7z M17.3,7.5c0-0.9-0.1-1.6-0.2-2.3
		c-0.2-0.7-0.4-1.3-0.7-1.8s-0.6-0.9-1-1.2S14.5,1.8,14,1.8h-0.1v11.6H14c0.5,0,0.9-0.1,1.3-0.4c0.4-0.3,0.7-0.7,1-1.2
		c0.3-0.5,0.5-1.1,0.7-1.8c0.2-0.7,0.2-1.5,0.2-2.3V7.5z"/>
	<path d="M30.8,3.3l-2.4,20.1h-1.2L24.4,3.3v20.1h-0.6v-22h1.5L28,21.3l2.4-19.8h1.5v22h-1.2V3.3z"/>
	<path d="M42.3,1.5v0.6h-3.5v9.3h2.5v0.7h-2.5v10.8h3.5v0.6h-4.7v-22H42.3z"/>
	<path d="M51.5,22.8v0.7h-4.4v-22h1.2v21.3H51.5z"/>
	<path d="M60.7,22.8v0.7h-4.4v-22h1.2v21.3H60.7z"/>
	<path d="M70.2,1.5v0.6h-3.5v9.3h2.5v0.7h-2.5v10.8h3.5v0.6h-4.7v-22H70.2z"/>
	<path d="M87.1,22.8v0.7h-4.4v-22h1.2v21.3H87.1z"/>
	<path d="M94.8,1.2c0.9,0,1.6,0.5,2.1,1.4c0.5,0.9,0.8,2.1,0.8,3.6v12.7c0,1.5-0.3,2.7-0.8,3.6c-0.5,0.9-1.2,1.4-2.1,1.4
		c-0.9,0-1.6-0.5-2.1-1.4c-0.5-0.9-0.8-2.1-0.8-3.6V6.1c0-1.5,0.3-2.7,0.8-3.6C93.2,1.6,93.8,1.2,94.8,1.2L94.8,1.2z M96.5,4.5
		c0-0.9-0.2-1.7-0.5-2.2c-0.3-0.6-0.8-0.8-1.3-0.8c-0.5,0-1,0.3-1.3,0.8C93.2,2.9,93,3.6,93,4.5v15.9c0,0.9,0.2,1.7,0.5,2.2
		c0.3,0.6,0.8,0.8,1.3,0.8c0.5,0,1-0.3,1.3-0.8c0.3-0.6,0.5-1.3,0.5-2.2V4.5z"/>
	<path d="M106,1.2c0.9,0,1.6,0.5,2.2,1.4s0.8,2.2,0.8,3.7v0.4h-1.1V4.6c0-0.9-0.2-1.7-0.5-2.2c-0.3-0.6-0.8-0.8-1.3-0.8
		c-0.6,0-1.1,0.3-1.5,1C104.2,3.1,104,4,104,5.1V7c0,0.7,0.1,1.3,0.3,1.9c0.2,0.6,0.5,1.1,0.8,1.4l2.4,2.4c0.5,0.5,0.8,1.1,1.1,1.9
		c0.3,0.8,0.4,1.7,0.4,2.6v1.2c0,0.8-0.1,1.6-0.2,2.2s-0.4,1.2-0.6,1.7c-0.3,0.5-0.6,0.8-1,1.1c-0.4,0.3-0.8,0.4-1.3,0.4
		c-0.9,0-1.6-0.5-2.2-1.4s-0.8-2.2-0.8-3.7v-0.4h1.2v2.5c0,0.8,0.1,1.5,0.4,2c0.3,0.5,0.7,0.7,1.2,0.7c0.7,0,1.2-0.4,1.7-1.1
		c0.4-0.7,0.6-1.7,0.6-2.9v-2.1c0-0.7-0.1-1.3-0.3-2c-0.2-0.6-0.5-1.1-0.8-1.5l-2.4-2.3c-0.5-0.5-0.8-1.1-1.1-1.9
		c-0.3-0.8-0.4-1.7-0.4-2.6V6.6c0-0.8,0.1-1.6,0.2-2.2c0.2-0.7,0.4-1.2,0.6-1.7c0.3-0.5,0.6-0.8,1-1.1C105,1.3,105.5,1.2,106,1.2
		L106,1.2z"/>
	<path d="M117.3,1.2c0.9,0,1.6,0.5,2.2,1.4s0.8,2.2,0.8,3.7v0.4h-1.1V4.6c0-0.9-0.2-1.7-0.5-2.2c-0.3-0.6-0.8-0.8-1.3-0.8
		c-0.6,0-1.1,0.3-1.5,1c-0.4,0.7-0.6,1.5-0.6,2.6V7c0,0.7,0.1,1.3,0.3,1.9c0.2,0.6,0.5,1.1,0.8,1.4l2.4,2.4c0.5,0.5,0.8,1.1,1.1,1.9
		c0.3,0.8,0.4,1.7,0.4,2.6v1.2c0,0.8-0.1,1.6-0.2,2.2s-0.4,1.2-0.6,1.7c-0.3,0.5-0.6,0.8-1,1.1c-0.4,0.3-0.8,0.4-1.3,0.4
		c-0.9,0-1.6-0.5-2.2-1.4s-0.8-2.2-0.8-3.7v-0.4h1.2v2.5c0,0.8,0.1,1.5,0.4,2c0.3,0.5,0.7,0.7,1.2,0.7c0.7,0,1.2-0.4,1.7-1.1
		c0.4-0.7,0.6-1.7,0.6-2.9v-2.1c0-0.7-0.1-1.3-0.3-2c-0.2-0.6-0.5-1.1-0.8-1.5l-2.4-2.3c-0.5-0.5-0.8-1.1-1.1-1.9
		c-0.3-0.8-0.4-1.7-0.4-2.6V6.6c0-0.8,0.1-1.6,0.2-2.2c0.2-0.7,0.4-1.2,0.6-1.7c0.3-0.5,0.6-0.8,1-1.1
		C116.3,1.3,116.7,1.2,117.3,1.2L117.3,1.2z"/>
	<path d="M128.5,1.2c0.9,0,1.6,0.5,2.1,1.4c0.5,0.9,0.8,2.1,0.8,3.6v12.7c0,1.5-0.3,2.7-0.8,3.6c-0.5,0.9-1.2,1.4-2.1,1.4
		c-0.9,0-1.6-0.5-2.1-1.4c-0.5-0.9-0.8-2.1-0.8-3.6V6.1c0-1.5,0.3-2.7,0.8-3.6C126.8,1.6,127.5,1.2,128.5,1.2L128.5,1.2z M130.2,4.5
		c0-0.9-0.2-1.7-0.5-2.2c-0.3-0.6-0.8-0.8-1.3-0.8c-0.5,0-1,0.3-1.3,0.8c-0.3,0.6-0.5,1.3-0.5,2.2v15.9c0,0.9,0.2,1.7,0.5,2.2
		c0.3,0.6,0.8,0.8,1.3,0.8c0.5,0,1-0.3,1.3-0.8c0.3-0.6,0.5-1.3,0.5-2.2V4.5z"/>
	<path d="M141.4,1.5h1.1v17c0,1.5-0.3,2.7-0.8,3.6c-0.5,0.9-1.2,1.4-2.1,1.4c-0.9,0-1.6-0.5-2.1-1.4c-0.5-0.9-0.8-2.1-0.8-3.6v-17
		h1.2v18.6c0,0.9,0.2,1.7,0.5,2.2c0.3,0.6,0.8,0.8,1.3,0.8c0.5,0,1-0.3,1.3-0.8c0.3-0.6,0.5-1.3,0.5-2.2V1.5z"/>
	<path d="M160.4,13.7h-0.5v9.8h-1.2v-22h2.3c0.5,0,0.9,0.1,1.3,0.4c0.4,0.3,0.7,0.7,1,1.2c0.3,0.5,0.5,1.1,0.7,1.8
		c0.2,0.7,0.2,1.5,0.2,2.3V8c0,1.5-0.2,2.8-0.7,3.8c-0.5,1-1.1,1.6-2,1.8l3,9.9h-1.3L160.4,13.7z M163.3,7.5c0-0.9-0.1-1.6-0.2-2.3
		c-0.2-0.7-0.4-1.3-0.7-1.8s-0.6-0.9-1-1.2s-0.8-0.4-1.3-0.4h-0.1v11.6h0.1c0.5,0,0.9-0.1,1.3-0.4c0.4-0.3,0.7-0.7,1-1.2
		c0.3-0.5,0.5-1.1,0.7-1.8c0.2-0.7,0.2-1.5,0.2-2.3V7.5z"/>
	<path d="M175.6,23.5h-1.3l-4-17.2v17.2h-0.5v-22h0.8l4.5,20v-20h0.5V23.5z"/>
</g>
</svg>
