<?xml version="1.0" encoding="utf-8"?>
<!-- Generator: Adobe Illustrator 23.1.1, SVG Export Plug-In . SVG Version: 6.00 Build 0)  -->
<svg version="1.1" id="Calque_1" xmlns="http://www.w3.org/2000/svg" xmlns:xlink="http://www.w3.org/1999/xlink" x="0px" y="0px"
	 viewBox="0 0 300 327.3" style="enable-background:new 0 0 300 327.3;" xml:space="preserve">
<style type="text/css">
	.st0{fill:#4D4696;}
</style>
<path class="st0" d="M255.5,307.9l-54.4-8.9c-6.2-1-12.5-1.2-18.8-0.6l-35.2,3.3c-4.3,0.4-8.7,0.5-13.1,0.3l-33-1.7
	c-5.6-0.3-11.1,0-16.6,1l-40.5,6.8c0,0,0,0,0,0c-5.6,0-8.3-1-10.6-3.4c-9.7-10.6-14.4-25-13.9-39.4l1.3-35.8c0-0.7,0-1.5,0-2.2
	c0-4.2,0.1-8.4,0.7-12.6l1.5-11.8c1.6-12.7-0.2-25.6-5.2-37.3l-3.3-7.8c-1.7-4-2.4-8.4-2.1-12.8l0,0l6.1-74.3v0
	c0.2-6.1-0.6-12.3-2.4-18.1l-0.8-2.4c-1.5-4.7-1.5-9.8-0.2-14.6l3-10.2c0.3-1.2,0.6-2.4,0.8-3.6c0.7-4,4.1-7.1,8.2-7.3
	c15.8-0.8,31.5-3,47.6,0.2c51.5,10.4,74.7-2.3,110.9,3.3c48.6,7.5,51.4-9.5,84.9-2.5c9,1.9,13.1,12.7,13.1,16.7l-1.5,30.7v0
	c0,1.6,0,3.3,0.2,4.9l6.3,74.3c0.4,5.2,0.2,10.4-0.8,15.5l-6.5,37.2c-0.2,1.4-0.5,2.8-0.9,4.2l-1.9,8.1c-1.1,4.7-1.8,9.6-1.8,14.4
	c0,2.4,0.1,4.7,0.5,6.6l4.1,21.5c0.6,2.3,0.9,4.6,1,7l0.6,4.9c1.1,8.8,1.1,17.7-0.3,26.4c-0.1,0.5-0.1,0.9-0.2,1.4
	c-0.2,1.6-0.5,3.2-1,4.8c-0.8,2.9-1.8,6.2-5,9.3c-3.3,3.2-7.7,4.8-12.3,4.7l-5.3-0.1C257.5,308.1,256.5,308.1,255.5,307.9z"/>
</svg>
