<?xml version="1.0" encoding="utf-8"?>
<!-- Generator: Adobe Illustrator 23.1.1, SVG Export Plug-In . SVG Version: 6.00 Build 0)  -->
<svg version="1.1" id="Calque_1" xmlns="http://www.w3.org/2000/svg" xmlns:xlink="http://www.w3.org/1999/xlink" x="0px" y="0px"
	 viewBox="0 0 450 450" style="enable-background:new 0 0 450 450;" xml:space="preserve">
<style type="text/css">
	.st0{fill:#FEEB15;}
</style>
<rect x="-2.4" y="-2.4" class="st0" width="455.3" height="456.1"/>
<g>
	<path d="M193,216.3h50.1v104.2c0,21.9-1.6,38.5-4.9,49.9c-3.3,11.4-9.9,21.1-19.8,29c-9.9,7.9-22.6,11.9-38,11.9
		c-16.3,0-29-2.6-38-7.9c-9-5.2-15.9-12.9-20.8-23c-4.9-10.1-7.8-22.5-8.7-37.4l47.8-7.7c0.1,8.5,0.7,14.7,1.9,18.8
		c1.2,4.1,3.2,7.4,6,9.9c1.9,1.7,4.6,2.5,8.2,2.5c5.6,0,9.7-2.5,12.3-7.4c2.6-4.9,3.9-13.2,3.9-24.9V216.3z"/>
	<path d="M267.7,344.7l47.6-3.5c1,9.2,3.1,16.1,6.3,20.9c5.1,7.8,12.5,11.6,22.1,11.6c7.1,0,12.6-2,16.5-6c3.9-4,5.8-8.6,5.8-13.8
		c0-5-1.8-9.4-5.5-13.3c-3.7-3.9-12.2-7.6-25.6-11.1c-21.9-5.8-37.6-13.6-46.9-23.3c-9.4-9.7-14.1-22-14.1-37
		c0-9.9,2.4-19.2,7.2-27.9c4.8-8.8,12.1-15.7,21.7-20.7c9.7-5,22.9-7.5,39.8-7.5c20.7,0,36.4,4.6,47.3,13.7
		c10.9,9.1,17.3,23.6,19.4,43.5l-47.1,3.3c-1.3-8.6-3.9-14.9-7.9-18.8s-9.5-5.9-16.6-5.9c-5.8,0-10.2,1.5-13.1,4.4
		c-2.9,2.9-4.4,6.5-4.4,10.7c0,3.1,1.2,5.8,3.6,8.2c2.4,2.5,7.9,4.9,16.8,7.1c21.8,5.6,37.5,11.2,47,16.9
		c9.5,5.7,16.3,12.8,20.6,21.3c4.3,8.5,6.5,17.9,6.5,28.4c0,12.3-2.9,23.6-8.6,34c-5.7,10.4-13.8,18.3-24.1,23.6
		c-10.3,5.4-23.3,8-39,8c-27.5,0-46.6-6.3-57.2-18.8C275.1,380,269.1,364,267.7,344.7z"/>
</g>
</svg>
