<?xml version="1.0" encoding="utf-8"?>
<!-- Generator: Adobe Illustrator 23.1.1, SVG Export Plug-In . SVG Version: 6.00 Build 0)  -->
<svg version="1.1" id="Calque_1" xmlns="http://www.w3.org/2000/svg" xmlns:xlink="http://www.w3.org/1999/xlink" x="0px" y="0px"
	 viewBox="0 0 450 450" style="enable-background:new 0 0 450 450;" xml:space="preserve">
<style type="text/css">
	.st0{fill:url(#SVGID_1_);}
	.st1{fill:url(#SVGID_2_);}
</style>
<linearGradient id="SVGID_1_" gradientUnits="userSpaceOnUse" x1="37.554" y1="222.9343" x2="419.8768" y2="222.9343">
	<stop  offset="0" style="stop-color:#6EC6D9"/>
	<stop  offset="1" style="stop-color:#68B42E"/>
</linearGradient>
<path class="st0" d="M40.6,110.8L225.7,3.9c1.9-1.1,4.1-1.1,6,0l185.2,106.9c1.9,1.1,3,3.1,3,5.2l0,213.8c0,2.1-1.1,4.1-3,5.2
	L231.7,441.9c-1.9,1.1-4.1,1.1-6,0L40.6,335c-1.9-1.1-3-3.1-3-5.2l0-213.8C37.6,113.9,38.7,111.9,40.6,110.8z"/>
<linearGradient id="SVGID_2_" gradientUnits="userSpaceOnUse" x1="59.8079" y1="223.9614" x2="397.6228" y2="223.9614">
	<stop  offset="0" style="stop-color:#FFFFFF"/>
	<stop  offset="1" style="stop-color:#FFFFFF"/>
</linearGradient>
<path class="st1" d="M62.8,124.7l162.9-94.1c1.9-1.1,4.1-1.1,6,0l162.9,94.1c1.9,1.1,3,3.1,3,5.2l0,188.1c0,2.1-1.1,4.1-3,5.2
	l-162.9,94.1c-1.9,1.1-4.1,1.1-6,0L62.8,323.2c-1.9-1.1-3-3.1-3-5.2l0-188.1C59.8,127.8,61,125.8,62.8,124.7z"/>
<g>
	<path d="M167.6,81.7h16.1V168c0,8.8,0.8,14.7,2.4,17.6c1.6,2.9,4.9,4.4,9.7,4.4c4.8,0,8-1.3,9.5-3.8c1.6-2.6,2.4-7.8,2.4-15.7V81.7
		h16.1v88.7c0,13.3-2,22.3-6.1,27c-4.9,5.3-12.3,8-22.2,8c-11,0-18.7-3.4-23.2-10.3c-3.1-4.7-4.7-13.7-4.7-27.1V81.7z"/>
	<path d="M234.3,81.7h16l8.5,23.7c3.3,9.3,5.3,16.2,5.9,20.5c0.6-2.7,1.2-5.3,1.9-7.8c0.7-2.5,1.5-5.1,2.3-7.6l1.1-3.6l7.8-25.2
		h16.6l-22.6,60.1l22.6,62h-16.6l-8.1-23.3c-1.6-4.6-3-8.8-4-12.5c-1-3.7-1.7-7-2.1-9.8c-0.4,3.5-1.1,6.9-2.1,10.1l-2.8,8.7
		l-1.4,4.6l-7,22.1h-17.4l23.1-62L234.3,81.7z"/>
</g>
<g>
	<path d="M182.1,243.2h16.1v86.3c0,8.8,0.8,14.7,2.4,17.6c1.6,2.9,4.9,4.4,9.7,4.4c4.8,0,8-1.3,9.5-3.8c1.6-2.6,2.4-7.8,2.4-15.7
		v-88.7h16.1v88.7c0,13.3-2,22.3-6.1,27c-4.9,5.3-12.3,8-22.2,8c-11,0-18.7-3.4-23.2-10.3c-3.1-4.7-4.7-13.7-4.7-27.1V243.2z"/>
	<path d="M257.1,243.2h16.5v122.1h-16.5V243.2z"/>
</g>
<rect x="107.9" y="220.6" width="241.6" height="3.4"/>
</svg>
